<svg width="24" height="24" viewBox="0 0 24 24" fill="none" xmlns="http://www.w3.org/2000/svg">
  <circle cx="12" cy="12" r="10" fill="#007ACC" opacity="0.2"/>
  <path d="M12 2C6.48 2 2 6.48 2 12s4.48 10 10 10 10-4.48 10-10S17.52 2 12 2zm0 18c-4.41 0-8-3.59-8-8s3.59-8 8-8 8 3.59 8 8-3.59 8-8 8z" fill="#007ACC"/>
  <circle cx="8.5" cy="10" r="1.5" fill="#007ACC"/>
  <circle cx="15.5" cy="10" r="1.5" fill="#007ACC"/>
  <path d="M12 17c2.5 0 4.5-1.5 4.5-3h-9c0 1.5 2 3 4.5 3z" fill="#007ACC"/>
</svg>
